<svg xmlns="http://www.w3.org/2000/svg" width="395.129" height="228.726" viewBox="0 0 395.129 228.726">
  <g id="footer-logo" transform="translate(0)">
    <rect id="長方形_806" data-name="長方形 806" width="23.215" height="11.607" transform="translate(0.16 108.792)"/>
    <rect id="長方形_807" data-name="長方形 807" width="11.607" height="17.411" transform="translate(55.055 108.778)"/>
    <rect id="長方形_808" data-name="長方形 808" width="23.215" height="11.607" transform="translate(0.16 137.811)"/>
    <path id="パス_4263" data-name="パス 4263" d="M81.475,166.829h23.153V155.221H81.475V143.614h23.152V132.006H46.714v11.608H69.868v11.607H46.714v11.608H69.868v11.608H34.983v11.607H69.868v34.823H81.475V190.044h34.761V178.437H81.475Z"/>
    <path id="パス_4264" data-name="パス 4264" d="M.16,201.651v23.215l23.215-40.209V161.442Z"/>
    <path id="パス_4265" data-name="パス 4265" d="M94.576,126.2l10.052-17.411h-13.4L81.173,126.2Z"/>
    <rect id="長方形_809" data-name="長方形 809" width="11.607" height="29.019" transform="translate(162.775 114.595)"/>
    <path id="パス_4266" data-name="パス 4266" d="M209.144,155.222H203.4v-46.43H191.794v46.43H139.452V166.83h33.616L139.56,224.867h13.4l33.508-58.037h22.673v58.037h46.383V213.26H220.751V166.83h34.885V155.222H209.144Z"/>
    <path id="パス_4267" data-name="パス 4267" d="M227.273,143.614,244.027,114.6h-13.4L213.87,143.614Z"/>
    <path id="パス_4268" data-name="パス 4268" d="M302.173,182.3h69.646v34.822H302.173Zm69.646-11.608H290.566v58.038h92.86V170.688Z"/>
    <path id="パス_4269" data-name="パス 4269" d="M383.36,147.473H298.847l20.1-34.823h-13.4l-26.806,46.431,10.777-.038v.038H383.36v5.8h11.607V135.865H383.36Z"/>
    <rect id="長方形_810" data-name="長方形 810" width="45.593" height="7.599" transform="translate(264.812 34.443)"/>
    <path id="パス_4270" data-name="パス 4270" d="M181.248.178v7.6h19.044V30.513H173.648v7.6h26.644V76.237h7.6V76.2h41.722V68.6H207.891V38.112h41.746v-7.6H207.891V7.778h34.148V.178Z"/>
    <path id="パス_4271" data-name="パス 4271" d="M67.215.018,58.347,15.376H22.8V.178H15.2v15.2H0v7.6H15.2v15.2h7.6v-15.2H53.961L23.342,76.008h8.775L62.735,22.975H75.989v-7.6H67.122L75.989.018Z"/>
    <rect id="長方形_811" data-name="長方形 811" width="18.998" height="7.599" transform="translate(91.186 7.707)"/>
    <path id="パス_4272" data-name="パス 4272" d="M153.986.178l-43.872,75.99h8.774L162.759.178Z"/>
    <path id="パス_4273" data-name="パス 4273" d="M349.891,22.762,319.14,76.025h8.774l30.751-53.263Z"/>
    <path id="パス_4274" data-name="パス 4274" d="M366.36,0V60.721l28.768-7.708V45.146l-21.169,5.672V0Z"/>
  </g>
</svg>
