<svg xmlns="http://www.w3.org/2000/svg" xmlns:xlink="http://www.w3.org/1999/xlink" width="29.999" height="800" viewBox="0 0 29.999 800">
  <defs>
    <clipPath id="clip-path">
      <rect id="長方形_818" data-name="長方形 818" width="144.887" height="11.668" fill="#d97933"/>
    </clipPath>
    <clipPath id="clip-path-2">
      <rect id="長方形_819" data-name="長方形 819" width="386.365" height="23.749" fill="#59b5d1"/>
    </clipPath>
    <clipPath id="clip-path-3">
      <rect id="長方形_820" data-name="長方形 820" width="241.478" height="29.999" fill="#d97933"/>
    </clipPath>
    <clipPath id="clip-path-4">
      <rect id="長方形_821" data-name="長方形 821" width="338.069" height="26.031" fill="#59b5d1"/>
    </clipPath>
  </defs>
  <g id="obj-side_04" transform="translate(20154.672 -10648.238) rotate(-90)">
    <g id="グループ_1717" data-name="グループ 1717" transform="translate(-11448.238 -20154.672)" style="mix-blend-mode: multiply;isolation: isolate">
      <g id="グループ_1716" data-name="グループ 1716" transform="translate(0 0)">
        <g id="グループ_1715" data-name="グループ 1715" clip-path="url(#clip-path)">
          <path id="パス_4277" data-name="パス 4277" d="M140.762,92.328S165.941,104,189.058,104s96.591-11.668,96.591-11.668Z" transform="translate(-140.762 -92.328)" fill="#d97933"/>
        </g>
      </g>
    </g>
    <g id="グループ_1720" data-name="グループ 1720" transform="translate(-11390.606 -20154.672)" style="mix-blend-mode: multiply;isolation: isolate">
      <g id="グループ_1719" data-name="グループ 1719" transform="translate(0 0)">
        <g id="グループ_1718" data-name="グループ 1718" clip-path="url(#clip-path-2)">
          <path id="パス_4278" data-name="パス 4278" d="M200.427,92.328s55.445,19.924,96.591,19.924,60.187-14.09,96.591-14.09S446.9,116.076,490.2,116.076c57.687,0,96.591-23.748,96.591-23.748Z" transform="translate(-200.427 -92.328)" fill="#59b5d1"/>
        </g>
      </g>
    </g>
    <g id="グループ_1723" data-name="グループ 1723" transform="translate(-11130.563 -20154.672)" style="mix-blend-mode: multiply;isolation: isolate">
      <g id="グループ_1722" data-name="グループ 1722" transform="translate(0 0)">
        <g id="グループ_1721" data-name="グループ 1721" clip-path="url(#clip-path-3)">
          <path id="パス_4279" data-name="パス 4279" d="M470.557,92.328s27.7,30,96.591,30,144.887-30,144.887-30Z" transform="translate(-470.557 -92.328)" fill="#d97933"/>
        </g>
      </g>
    </g>
    <g id="グループ_1726" data-name="グループ 1726" transform="translate(-10986.308 -20154.672)" style="mix-blend-mode: multiply;isolation: isolate">
      <g id="グループ_1725" data-name="グループ 1725" transform="translate(0 0)">
        <g id="グループ_1724" data-name="グループ 1724" clip-path="url(#clip-path-4)">
          <path id="パス_4280" data-name="パス 4280" d="M620.593,92.328s69.857,23.426,96.591,23.426,43.39-11.713,67.777-11.713,24.388,14.318,58.888,14.318S958.662,92.328,958.662,92.328Z" transform="translate(-620.593 -92.328)" fill="#59b5d1"/>
        </g>
      </g>
    </g>
  </g>
</svg>
