<svg xmlns="http://www.w3.org/2000/svg" width="21.306" height="456.71" viewBox="0 0 21.306 456.71">
  <g id="obj-side_01" transform="translate(0.261 -789.982)">
    <path id="パス_4043" data-name="パス 4043" d="M10052.367-10854.258s-29.639,3.486-24.762,9.077,21.482,9.522,35.564,10.681a140.678,140.678,0,0,0,52.219-4.809c21.928-6.071,23.86-7.407,28.949-8.437s27.3-5.76,46.432-2.842,19.591,5.354,27.2,8.292c9.6,3.64,29.6,9.655,50.774,0s31.728-9.289,39.578-9.655,36.049.6,28.193-1.514S10052.367-10854.258,10052.367-10854.258Z" transform="translate(10854.403 11273.756) rotate(-90)" fill="#d97933" style="mix-blend-mode: multiply;isolation: isolate"/>
    <path id="パス_4042" data-name="パス 4042" d="M10173.818-10851a16.156,16.156,0,0,0,7.867,12.162c7.344,4.136,19.023,12.264,68.871,7.354s89.811-17.877,124.557-14.367,34.031,6.564,55.726,7.014,34.753-12.162,34.753-12.162Z" transform="translate(10850.998 11255.574) rotate(-90)" fill="#59b5d1" style="mix-blend-mode: multiply;isolation: isolate"/>
  </g>
</svg>
