<svg id="side-menu-logo" xmlns="http://www.w3.org/2000/svg" xmlns:xlink="http://www.w3.org/1999/xlink" width="240" height="240" viewBox="0 0 240 240">
  <defs>
    <clipPath id="clip-path">
      <rect id="長方形_653" data-name="長方形 653" width="240" height="240" fill="#2e2e2d"/>
    </clipPath>
  </defs>
  <rect id="長方形_647" data-name="長方形 647" width="6.266" height="3.133" transform="translate(66.592 180.221)" fill="#2e2e2d"/>
  <rect id="長方形_648" data-name="長方形 648" width="3.133" height="4.7" transform="translate(81.409 180.217)" fill="#2e2e2d"/>
  <rect id="長方形_649" data-name="長方形 649" width="6.266" height="3.133" transform="translate(66.592 188.053)" fill="#2e2e2d"/>
  <path id="パス_3393" data-name="パス 3393" d="M255.095,604.619h6.25v-3.133h-6.25v-3.133h6.249v-3.133H245.712v3.133h6.25v3.133h-6.25v3.133h6.25v3.133h-9.416v3.133h9.416v9.4h3.133v-9.4h9.383v-3.133h-9.383Z" transform="translate(-166.554 -408.732)" fill="#2e2e2d"/>
  <path id="パス_3394" data-name="パス 3394" d="M212.545,637.7l6.266-10.853v-6.266l-6.266,10.853Z" transform="translate(-145.953 -426.146)" fill="#2e2e2d"/>
  <path id="パス_3395" data-name="パス 3395" d="M285.956,579.919l2.713-4.7h-3.618l-2.713,4.7Z" transform="translate(-193.88 -394.998)" fill="#2e2e2d"/>
  <rect id="長方形_650" data-name="長方形 650" width="3.133" height="7.833" transform="translate(110.484 181.787)" fill="#2e2e2d"/>
  <path id="パス_3396" data-name="パス 3396" d="M351.357,587.751h-1.55V575.219h-3.133v12.532H332.545v3.133h9.074l-9.045,15.665h3.618l9.044-15.665h6.12V606.55h12.52v-3.133H354.49V590.885h9.416v-3.133H351.357Z" transform="translate(-228.356 -394.998)" fill="#2e2e2d"/>
  <path id="パス_3397" data-name="パス 3397" d="M404.8,580.219h-3.618l-4.522,7.833h3.617Z" transform="translate(-272.383 -398.432)" fill="#2e2e2d"/>
  <path id="パス_3398" data-name="パス 3398" d="M484.664,628.543H462.732v15.666H487.8V628.543h-3.133Zm0,12.532h-18.8v-9.4h18.8Z" transform="translate(-317.755 -431.615)" fill="#2e2e2d"/>
  <path id="パス_3399" data-name="パス 3399" d="M480.784,587.943H457.972l5.427-9.4h-3.618l-7.236,12.532,2.909-.01v.01h25.329v1.567h3.133V584.81h-3.133Z" transform="translate(-310.76 -397.281)" fill="#2e2e2d"/>
  <rect id="長方形_651" data-name="長方形 651" width="18.798" height="3.133" transform="translate(147.565 156.752)" fill="#2e2e2d"/>
  <path id="パス_3400" data-name="パス 3400" d="M365.142,458.355h14.079v-3.133H354.156v3.133h7.852v9.374H351.023v3.133h10.985v15.719h3.133v-.015h17.2v-3.133h-17.2V470.862h17.213v-3.133H365.142Z" transform="translate(-241.045 -312.598)" fill="#2e2e2d"/>
  <path id="パス_3401" data-name="パス 3401" d="M153.836,461.343H150.18l3.656-6.332h-3.618l-3.656,6.332H131.9v-6.266h-3.133v6.266H122.5v3.133h6.266v6.266H131.9v-6.266h12.849l-12.624,21.865h3.618l12.624-21.865h5.465Z" transform="translate(-84.123 -312.453)" fill="#2e2e2d"/>
  <rect id="長方形_652" data-name="長方形 652" width="7.833" height="3.133" transform="translate(75.979 145.729)" fill="#2e2e2d"/>
  <path id="パス_3402" data-name="パス 3402" d="M285.5,455.222l-18.089,31.331h3.618l18.089-31.331Z" transform="translate(-183.63 -312.598)" fill="#2e2e2d"/>
  <path id="パス_3403" data-name="パス 3403" d="M542.487,506.9H546.1l12.679-21.961h-3.618Z" transform="translate(-372.521 -333.006)" fill="#2e2e2d"/>
  <path id="パス_3404" data-name="パス 3404" d="M607.761,454.987h-3.133v25.036l11.862-3.178V473.6l-8.728,2.339Z" transform="translate(-415.193 -312.436)" fill="#2e2e2d"/>
  <g id="グループ_1250" data-name="グループ 1250">
    <g id="グループ_1249" data-name="グループ 1249" clip-path="url(#clip-path)">
      <path id="パス_3405" data-name="パス 3405" d="M313.647,288.169l3.624.682a.627.627,0,1,0,.232-1.232l-3.624-.682a.627.627,0,1,0-.232,1.232" transform="translate(-215.028 -197.03)" fill="#2e2e2d"/>
      <path id="パス_3406" data-name="パス 3406" d="M302.731,284.836a.627.627,0,0,0-.234,1.231l.443.084a.627.627,0,0,0,.234-1.231Z" transform="translate(-207.372 -195.587)" fill="#2e2e2d"/>
      <path id="パス_3407" data-name="パス 3407" d="M273.866,280.035a.627.627,0,0,0-.5-.732l-9-1.69a.627.627,0,1,0-.231,1.232l9,1.69a.627.627,0,0,0,.731-.5" transform="translate(-181.026 -190.627)" fill="#2e2e2d"/>
      <path id="パス_3408" data-name="パス 3408" d="M251.8,276.525l.812.153a.627.627,0,1,0,.232-1.232l-.812-.153a.627.627,0,0,0-.232,1.232" transform="translate(-172.56 -189.034)" fill="#2e2e2d"/>
      <path id="パス_3409" data-name="パス 3409" d="M196.718,266.294a.627.627,0,0,0,.232-1.232c-6.866-1.293-13.865-2.616-20.762-3.845a.627.627,0,1,0-.22,1.234h0c6.888,1.228,13.884,2.55,20.75,3.842" transform="translate(-120.481 -179.369)" fill="#2e2e2d"/>
      <path id="パス_3410" data-name="パス 3410" d="M309.734,270.79a.627.627,0,0,0-.352-.814l-3.435-1.363a.627.627,0,1,0-.462,1.165l3.435,1.363a.626.626,0,0,0,.814-.351" transform="translate(-209.503 -184.425)" fill="#2e2e2d"/>
      <path id="パス_3411" data-name="パス 3411" d="M277.407,257.968a.627.627,0,0,0-.351-.814l-9.026-3.58a.627.627,0,0,0-.462,1.165h0l9.026,3.58a.627.627,0,0,0,.814-.351" transform="translate(-183.465 -174.097)" fill="#2e2e2d"/>
      <path id="パス_3412" data-name="パス 3412" d="M234.366,240.9a.627.627,0,0,0-.351-.814L226,236.9a.627.627,0,0,0-.462,1.165h0l8.017,3.179a.626.626,0,0,0,.814-.352" transform="translate(-154.602 -162.649)" fill="#2e2e2d"/>
      <path id="パス_3413" data-name="パス 3413" d="M170.317,216.169h0l14.3,5.672a.627.627,0,0,0,.462-1.165L170.78,215a.627.627,0,1,0-.462,1.165" transform="translate(-116.684 -147.611)" fill="#2e2e2d"/>
      <path id="パス_3414" data-name="パス 3414" d="M296.947,242.443a.626.626,0,0,0-.182-.867c-6.078-3.971-12.2-7.964-18.238-11.966a.627.627,0,1,0-.692,1.045h0c6.047,4.005,12.167,8,18.244,11.97a.626.626,0,0,0,.867-.182" transform="translate(-190.595 -157.6)" fill="#2e2e2d"/>
      <path id="パス_3415" data-name="パス 3415" d="M261.624,220.034l.6.388a.627.627,0,1,0,.684-1.05l-.6-.388a.627.627,0,0,0-.684,1.051" transform="translate(-179.46 -150.305)" fill="#2e2e2d"/>
      <path id="パス_3416" data-name="パス 3416" d="M216.351,190.5h0c3.875,2.551,7.67,5.031,11.59,7.564a.627.627,0,0,0,.681-1.052c-3.917-2.531-7.709-5.009-11.582-7.559a.627.627,0,1,0-.689,1.047" transform="translate(-148.373 -130.025)" fill="#2e2e2d"/>
      <path id="パス_3417" data-name="パス 3417" d="M174.352,162.8h0c3.492,2.369,7.058,4.7,10.594,7a.627.627,0,0,0,.683-1.051c-3.535-2.3-7.094-4.623-10.574-6.984a.627.627,0,1,0-.7,1.037" transform="translate(-119.537 -111.008)" fill="#2e2e2d"/>
      <path id="パス_3418" data-name="パス 3418" d="M337.906,253.142a.627.627,0,0,0-.013-.886q-2.023-1.963-4.028-3.946a.627.627,0,1,0-.881.891h0q2.009,1.987,4.037,3.954a.626.626,0,0,0,.886-.013" transform="translate(-228.53 -170.388)" fill="#2e2e2d"/>
      <path id="パス_3419" data-name="パス 3419" d="M299.019,213.967a.626.626,0,0,0-.894.878h0c2.464,2.511,4.984,4.967,7.487,7.4a.627.627,0,0,0,.874-.9c-2.5-2.435-5.016-4.884-7.466-7.382" transform="translate(-204.597 -146.801)" fill="#2e2e2d"/>
      <path id="パス_3420" data-name="パス 3420" d="M268.763,186.259h0c2.276,2.278,4.665,4.606,7.023,6.819a.627.627,0,0,0,.858-.914c-2.346-2.2-4.726-4.522-6.994-6.792a.627.627,0,0,0-.886.886" transform="translate(-184.431 -127.168)" fill="#2e2e2d"/>
      <path id="パス_3421" data-name="パス 3421" d="M261.836,178.639a.627.627,0,0,0-.013-.886l-.409-.4a.627.627,0,0,0-.874.9l.41.4a.627.627,0,0,0,.886-.013" transform="translate(-178.781 -121.666)" fill="#2e2e2d"/>
      <path id="パス_3422" data-name="パス 3422" d="M228.561,146.961c2.577,2.555,5.223,5.142,7.788,7.632a.627.627,0,0,0,.873-.9c-2.562-2.487-5.207-5.072-7.779-7.622a.627.627,0,0,0-.883.89Z" transform="translate(-156.824 -100.181)" fill="#2e2e2d"/>
      <path id="パス_3423" data-name="パス 3423" d="M338.006,228.653a.627.627,0,0,0,.167-.87L328,212.775a.626.626,0,1,0-1.037.7h0l10.169,15.008a.627.627,0,0,0,.87.167" transform="translate(-224.451 -145.922)" fill="#2e2e2d"/>
      <path id="パス_3424" data-name="パス 3424" d="M321.655,204.526a.626.626,0,0,0,.168-.87l-.289-.426a.627.627,0,1,0-1.038.7l.289.426a.626.626,0,0,0,.87.168" transform="translate(-220.008 -139.367)" fill="#2e2e2d"/>
      <path id="パス_3425" data-name="パス 3425" d="M271.288,131.656c4.591,6.648,9.15,13.389,13.647,20.029a.627.627,0,0,0,1.038-.7c-4.5-6.64-9.058-13.384-13.653-20.039a.627.627,0,0,0-1.031.712Z" transform="translate(-186.215 -89.733)" fill="#2e2e2d"/>
      <path id="パス_3426" data-name="パス 3426" d="M250.256,100.445c1.625,2.343,3.175,4.636,4.7,7a.627.627,0,1,0,1.053-.68c-1.538-2.381-3.1-4.686-4.727-7.037a.627.627,0,0,0-1.03.714Z" transform="translate(-171.772 -68.299)" fill="#2e2e2d"/>
      <path id="パス_3427" data-name="パス 3427" d="M360.183,236.361a.627.627,0,0,0,.338-.819l-1.416-3.4a.627.627,0,0,0-1.157.481l1.416,3.4a.627.627,0,0,0,.819.338" transform="translate(-245.767 -159.142)" fill="#2e2e2d"/>
      <path id="パス_3428" data-name="パス 3428" d="M354.585,222.9a.626.626,0,0,0,.339-.819l-.172-.416a.627.627,0,0,0-1.158.479l.172.416a.626.626,0,0,0,.818.34" transform="translate(-242.778 -151.948)" fill="#2e2e2d"/>
      <path id="パス_3429" data-name="パス 3429" d="M338.6,186.1h0l3.521,8.456a.627.627,0,1,0,1.157-.482l-3.522-8.456a.627.627,0,1,0-1.157.482" transform="translate(-232.484 -127.195)" fill="#2e2e2d"/>
      <path id="パス_3430" data-name="パス 3430" d="M333.786,174.513l.317.763a.627.627,0,0,0,1.157-.481l-.317-.763a.627.627,0,0,0-1.157.481" transform="translate(-229.175 -119.242)" fill="#2e2e2d"/>
      <path id="パス_3431" data-name="パス 3431" d="M303.985,103.369c2.75,6.435,5.479,13.011,8.161,19.462a.627.627,0,0,0,1.157-.481c-2.682-6.451-5.413-13.03-8.166-19.474a.627.627,0,1,0-1.152.493Z" transform="translate(-208.71 -70.383)" fill="#2e2e2d"/>
      <path id="パス_3432" data-name="パス 3432" d="M369.341,214.957a.626.626,0,0,0-.488.74l.743,3.62a.627.627,0,1,0,1.228-.252l-.743-3.62a.626.626,0,0,0-.739-.488" transform="translate(-253.28 -147.6)" fill="#2e2e2d"/>
      <path id="パス_3433" data-name="パス 3433" d="M360.65,175.739h0l1.953,9.512A.627.627,0,0,0,363.83,185l-1.953-9.512a.627.627,0,0,0-1.228.252" transform="translate(-247.646 -120.162)" fill="#2e2e2d"/>
      <path id="パス_3434" data-name="パス 3434" d="M351.553,131.446h0c.581,2.83,1.158,5.638,1.735,8.448a.627.627,0,0,0,1.228-.252l-1.735-8.448a.627.627,0,0,0-1.228.252" transform="translate(-241.4 -89.746)" fill="#2e2e2d"/>
      <path id="パス_3435" data-name="パス 3435" d="M339.6,73.257,342.7,88.329a.627.627,0,0,0,1.228-.252l-3.1-15.071a.627.627,0,0,0-1.228.252Z" transform="translate(-233.194 -49.788)" fill="#2e2e2d"/>
      <path id="パス_3436" data-name="パス 3436" d="M387.071,170.5a.627.627,0,0,0-.629.624q-.01,3.083-.01,6.177c0,5.214.018,10.442.034,15.644a.627.627,0,1,0,1.253,0c-.016-5.2-.034-10.428-.034-15.64q0-3.091.01-6.172a.627.627,0,0,0-.624-.628" transform="translate(-265.361 -117.079)" fill="#2e2e2d"/>
      <path id="パス_3437" data-name="パス 3437" d="M387.052,151.111a.626.626,0,0,0-.623.63l0,.711a.626.626,0,1,0,1.253-.006l0-.711a.627.627,0,0,0-.629-.623" transform="translate(-265.358 -103.767)" fill="#2e2e2d"/>
      <path id="パス_3438" data-name="パス 3438" d="M387.481,97.689a.626.626,0,0,0-1.253,0h0q0,.444,0,.888c0,4.331.013,8.584.049,12.952a.627.627,0,1,0,1.253-.01c-.035-4.365-.049-8.613-.049-12.942q0-.443,0-.887" transform="translate(-265.22 -66.652)" fill="#2e2e2d"/>
      <path id="パス_3439" data-name="パス 3439" d="M386.8,60.7a.627.627,0,0,0,.624-.63q-.016-2.938-.018-5.889c0-2.266.011-4.531.043-6.783a.627.627,0,1,0-1.253-.018c-.032,2.26-.043,4.531-.043,6.8q0,2.953.018,5.9a.626.626,0,0,0,.63.623" transform="translate(-265.171 -32.108)" fill="#2e2e2d"/>
      <path id="パス_3440" data-name="パス 3440" d="M398.328,233.68a.627.627,0,0,0,.735-.495l1.083-5.54a.627.627,0,1,0-1.23-.241l-1.084,5.54a.627.627,0,0,0,.5.735" transform="translate(-273.181 -155.809)" fill="#2e2e2d"/>
      <path id="パス_3441" data-name="パス 3441" d="M404.732,190.452a.627.627,0,0,0,.734-.5c.658-3.429,1.323-6.875,2.062-10.3a.627.627,0,1,0-1.225-.265c-.743,3.439-1.41,6.894-2.068,10.323a.627.627,0,0,0,.5.734" transform="translate(-277.577 -122.85)" fill="#2e2e2d"/>
      <path id="パス_3442" data-name="パス 3442" d="M413.228,149.495a.627.627,0,0,0,.725-.51c.55-3.17,1.179-6.434,1.828-9.576a.627.627,0,1,0-1.227-.253h0c-.651,3.153-1.282,6.429-1.836,9.615a.626.626,0,0,0,.51.725" transform="translate(-283.404 -95.213)" fill="#2e2e2d"/>
      <path id="パス_3443" data-name="パス 3443" d="M420.893,129.181a.627.627,0,0,0,.733-.5l.107-.561a.627.627,0,1,0-1.231-.236l-.107.561a.627.627,0,0,0,.5.733" transform="translate(-288.675 -87.469)" fill="#2e2e2d"/>
      <path id="パス_3444" data-name="パス 3444" d="M423.117,95.4a.627.627,0,0,0,.733-.5c.669-3.507,1.374-7.137,2.091-10.688a.627.627,0,0,0-1.228-.248c-.718,3.557-1.425,7.19-2.094,10.7a.627.627,0,0,0,.5.733" transform="translate(-290.201 -57.316)" fill="#2e2e2d"/>
      <path id="パス_3445" data-name="パス 3445" d="M413.217,202.406a.626.626,0,0,0-.82.336l-6.987,16.728a.627.627,0,1,0,1.156.483l6.987-16.728a.627.627,0,0,0-.337-.82" transform="translate(-278.359 -138.958)" fill="#2e2e2d"/>
      <path id="パス_3446" data-name="パス 3446" d="M431.72,192.1l-.2.475a.627.627,0,0,0,1.156.483l.2-.475a.627.627,0,0,0-1.156-.483" transform="translate(-296.289 -131.651)" fill="#2e2e2d"/>
      <path id="パス_3447" data-name="パス 3447" d="M436.376,134.553a.627.627,0,0,0,.82-.336c3.093-7.4,6.237-14.909,9.288-22.4a.627.627,0,1,0-1.16-.473c-3.048,7.482-6.191,14.988-9.284,22.388a.627.627,0,0,0,.336.82" transform="translate(-299.391 -76.192)" fill="#2e2e2d"/>
      <path id="パス_3448" data-name="パス 3448" d="M470.093,85.253a.627.627,0,0,0,.827-.319c1.15-2.591,2.225-5.157,3.3-7.809a.627.627,0,0,0-1.161-.471c-1.071,2.643-2.14,5.2-3.283,7.771a.627.627,0,0,0,.319.827" transform="translate(-322.553 -52.37)" fill="#2e2e2d"/>
      <path id="パス_3449" data-name="パス 3449" d="M422.218,243.059a.626.626,0,0,0,.87-.166l2.073-3.049a.627.627,0,1,0-1.036-.7l-2.073,3.049a.626.626,0,0,0,.166.87" transform="translate(-289.746 -164.027)" fill="#2e2e2d"/>
      <path id="パス_3450" data-name="パス 3450" d="M435.364,229.595a.626.626,0,0,0-.871.164l-.254.372a.627.627,0,0,0,1.035.706l.254-.372a.626.626,0,0,0-.164-.871" transform="translate(-298.114 -157.586)" fill="#2e2e2d"/>
      <path id="パス_3451" data-name="パス 3451" d="M446.591,197.309a.626.626,0,0,0-.87.166l-5.146,7.577a.627.627,0,1,0,1.037.7l5.146-7.577a.627.627,0,0,0-.166-.87" transform="translate(-302.465 -135.416)" fill="#2e2e2d"/>
      <path id="パス_3452" data-name="パス 3452" d="M463.6,188.488l.465-.683a.627.627,0,0,0-1.036-.7l-.465.683a.627.627,0,1,0,1.036.7" transform="translate(-317.568 -128.292)" fill="#2e2e2d"/>
      <path id="パス_3453" data-name="パス 3453" d="M469.707,141.56a.627.627,0,0,0,.871-.166c3.928-5.777,7.937-11.665,11.821-17.5a.627.627,0,1,0-1.043-.695c-3.879,5.825-7.886,11.71-11.814,17.488a.626.626,0,0,0,.166.871" transform="translate(-322.356 -84.41)" fill="#2e2e2d"/>
      <path id="パス_3454" data-name="パス 3454" d="M440.568,242.583a.627.627,0,0,0,.886,0l2.616-2.61a.627.627,0,0,0-.885-.887l-2.616,2.61a.627.627,0,0,0,0,.886" transform="translate(-302.409 -164.053)" fill="#2e2e2d"/>
      <path id="パス_3455" data-name="パス 3455" d="M455.853,218.017a.627.627,0,0,0,.886,0l6.873-6.86a.627.627,0,1,0-.885-.887h0l-6.873,6.86a.627.627,0,0,0,0,.886" transform="translate(-312.905 -144.266)" fill="#2e2e2d"/>
      <path id="パス_3456" data-name="パス 3456" d="M496.417,178.329l-6.1,6.092a.627.627,0,1,0,.885.887l6.1-6.092a.627.627,0,0,0-.885-.887Z" transform="translate(-336.568 -122.331)" fill="#2e2e2d"/>
      <path id="パス_3457" data-name="パス 3457" d="M517.967,148.121l10.89-10.869a.627.627,0,0,0-.885-.887l-10.89,10.869a.627.627,0,1,0,.885.887" transform="translate(-354.95 -93.515)" fill="#2e2e2d"/>
      <path id="パス_3458" data-name="パス 3458" d="M437.511,242.179a.627.627,0,0,0,.868.176c6.054-4.008,12.143-8.044,18.21-12.006a.627.627,0,1,0-.685-1.049c-6.072,3.965-12.163,8-18.217,12.011a.627.627,0,0,0-.176.868" transform="translate(-300.364 -157.389)" fill="#2e2e2d"/>
      <path id="パス_3459" data-name="パス 3459" d="M510.11,219.015a.627.627,0,1,0,.694,1.044l.592-.394a.627.627,0,0,0-.694-1.044Z" transform="translate(-350.096 -150.054)" fill="#2e2e2d"/>
      <path id="パス_3460" data-name="パス 3460" d="M520.066,197.264a.627.627,0,0,0,.87.172c3.876-2.594,7.653-5.094,11.528-7.64a.627.627,0,1,0-.688-1.047c-3.877,2.548-7.658,5.05-11.537,7.646a.627.627,0,0,0-.172.869" transform="translate(-357.052 -129.541)" fill="#2e2e2d"/>
      <path id="パス_3461" data-name="パス 3461" d="M565.938,169.156c3.511-2.335,7.055-4.682,10.6-6.942a.627.627,0,0,0-.674-1.057c-3.558,2.268-7.108,4.619-10.62,6.955a.627.627,0,1,0,.694,1.044" transform="translate(-387.956 -110.598)" fill="#2e2e2d"/>
      <path id="パス_3462" data-name="パス 3462" d="M445.43,272.506l-5.228,2.13a.627.627,0,0,0,.473,1.161l5.227-2.131a.627.627,0,1,0-.473-1.16" transform="translate(-302.016 -187.096)" fill="#2e2e2d"/>
      <path id="パス_3463" data-name="パス 3463" d="M481.7,254.528a.627.627,0,0,0-.81-.36c-3.281,1.262-6.537,2.6-9.767,3.928a.627.627,0,0,0,.477,1.159c3.229-1.329,6.476-2.663,9.74-3.918a.627.627,0,0,0,.36-.81" transform="translate(-323.25 -174.507)" fill="#2e2e2d"/>
      <path id="パス_3464" data-name="パス 3464" d="M520.836,239.748a.627.627,0,0,0-.461-1.165c-2.994,1.183-6.08,2.451-9.05,3.735a.627.627,0,1,0,.5,1.15c2.956-1.278,6.029-2.541,9.013-3.72" transform="translate(-350.864 -163.803)" fill="#2e2e2d"/>
      <path id="パス_3465" data-name="パス 3465" d="M549.575,235.6l.528-.217a.627.627,0,0,0-.478-1.159l-.528.218a.627.627,0,0,0,.478,1.159" transform="translate(-376.795 -160.804)" fill="#2e2e2d"/>
      <path id="パス_3466" data-name="パス 3466" d="M559.651,222.24a.626.626,0,0,0,.818.34c3.3-1.363,6.723-2.762,10.085-4.109a.627.627,0,0,0-.466-1.163c-3.368,1.349-6.794,2.75-10.1,4.114a.626.626,0,0,0-.34.818" transform="translate(-384.276 -149.192)" fill="#2e2e2d"/>
      <path id="パス_3467" data-name="パス 3467" d="M435.331,285.644l17.819-3.326a.627.627,0,1,0-.23-1.232l-17.82,3.326a.627.627,0,0,0,.23,1.232" transform="translate(-298.429 -193.013)" fill="#2e2e2d"/>
      <path id="パス_3468" data-name="パス 3468" d="M501.927,280.3l.506-.094a.627.627,0,0,0-.229-1.232l-.506.094a.627.627,0,1,0,.229,1.232" transform="translate(-344.16 -191.56)" fill="#2e2e2d"/>
      <path id="パス_3469" data-name="パス 3469" d="M513.44,268.478c7.883-1.469,15.888-2.956,23.826-4.51a.627.627,0,0,0-.24-1.23h0c-7.93,1.552-15.93,3.038-23.815,4.508a.627.627,0,1,0,.23,1.232" transform="translate(-352.066 -180.412)" fill="#2e2e2d"/>
      <path id="パス_3470" data-name="パス 3470" d="M599.2,258.163a.627.627,0,0,0,.72.517c2.8-.458,5.531-.965,8.339-1.521a.627.627,0,0,0-.243-1.229c-2.8.554-5.519,1.058-8.3,1.514a.626.626,0,0,0-.517.72" transform="translate(-411.459 -175.737)" fill="#2e2e2d"/>
      <path id="パス_3471" data-name="パス 3471" d="M372.606,332.115h-12.97a1.567,1.567,0,0,0-1.567,1.567v9.2a1.567,1.567,0,0,0,1.567,1.567h12.97a1.566,1.566,0,0,0,1.566-1.567v-9.2a1.566,1.566,0,0,0-1.566-1.567m-7.268,10.772h-5.7v-9.2h5.7Zm7.268,0h-5.7v-9.2h5.7Z" transform="translate(-245.883 -228.061)" fill="#2e2e2d"/>
      <path id="パス_3472" data-name="パス 3472" d="M159.944,332.115h-12.97a1.567,1.567,0,0,0-1.567,1.567v9.2a1.567,1.567,0,0,0,1.567,1.567h12.97a1.567,1.567,0,0,0,1.567-1.567v-9.2a1.567,1.567,0,0,0-1.567-1.567m-7.268,10.772h-5.7v-9.2h5.7Zm7.268,0h-5.7v-9.2h5.7Z" transform="translate(-99.85 -228.061)" fill="#2e2e2d"/>
      <path id="パス_3473" data-name="パス 3473" d="M582.725,332.115h-12.97a1.567,1.567,0,0,0-1.567,1.567v9.2a1.567,1.567,0,0,0,1.567,1.567h12.97a1.567,1.567,0,0,0,1.567-1.567v-9.2a1.567,1.567,0,0,0-1.567-1.567m-7.268,10.772h-5.7v-9.2h5.7Zm7.268,0h-5.7v-9.2h5.7Z" transform="translate(-390.17 -228.061)" fill="#2e2e2d"/>
      <path id="パス_3474" data-name="パス 3474" d="M262.966,293.068l-32.395-15.86a.786.786,0,0,0-.68,0l-33.1,15.7L164.74,277.207a.786.786,0,0,0-.68,0l-33.437,15.86-.063.038-.054-.034-32.395-15.86a.786.786,0,0,0-.68,0l-33.437,15.86a.785.785,0,0,0-.447.708v2.736a.783.783,0,0,0,1.119.708l4.65-2.205v14.078H68.152a.783.783,0,0,0-.783.783v3.712a5.527,5.527,0,0,0,1.946,4.212v16.416h1.567V318.737a5.522,5.522,0,0,0,6.789-2.324,5.531,5.531,0,0,0,9.518,0,5.531,5.531,0,0,0,9.518,0,5.531,5.531,0,0,0,9.519,0,5.531,5.531,0,0,0,9.518,0,5.531,5.531,0,0,0,9.519,0,5.531,5.531,0,0,0,9.518,0,5.531,5.531,0,0,0,9.518,0,5.531,5.531,0,0,0,9.519,0,5.531,5.531,0,0,0,9.518,0,5.531,5.531,0,0,0,9.518,0,5.531,5.531,0,0,0,9.519,0,5.531,5.531,0,0,0,9.518,0,5.535,5.535,0,0,0,9.658-.241,5.535,5.535,0,0,0,9.658.241,5.531,5.531,0,0,0,9.519,0,5.531,5.531,0,0,0,9.518,0,5.531,5.531,0,0,0,9.519,0,5.531,5.531,0,0,0,9.518,0,5.524,5.524,0,0,0,6.816,2.314v15.019h1.567V317.771a5.527,5.527,0,0,0,1.919-4.188v-3.712a.784.784,0,0,0-.783-.783h-1.154V294.943l4.632,2.268a.783.783,0,0,0,1.128-.7v-2.736a.782.782,0,0,0-.439-.7M75.722,316.394a3.976,3.976,0,0,1-6.787-2.811v-2.929h7.952v2.929a3.96,3.96,0,0,1-1.165,2.811m10.683-2.811a3.976,3.976,0,0,1-7.952,0v-2.929h7.952Zm9.518,0a3.976,3.976,0,0,1-7.952,0v-2.929h7.952Zm8.354,2.811a3.976,3.976,0,0,1-6.787-2.811v-2.929h7.952v2.929a3.96,3.96,0,0,1-1.165,2.811m10.683-2.811a3.976,3.976,0,0,1-7.952,0v-2.929h7.952Zm8.354,2.811a3.976,3.976,0,0,1-6.788-2.811v-2.929h7.952v2.929a3.96,3.96,0,0,1-1.165,2.811M134,313.583a3.976,3.976,0,0,1-7.952,0v-2.929H134Zm8.354,2.811a3.976,3.976,0,0,1-6.788-2.811v-2.929h7.952v2.929a3.959,3.959,0,0,1-1.165,2.811m10.683-2.811a3.976,3.976,0,0,1-7.952,0v-2.929h7.952Zm8.354,2.811a3.976,3.976,0,0,1-6.787-2.811v-2.929h7.952v2.929a3.959,3.959,0,0,1-1.165,2.811m9.518,0a3.976,3.976,0,0,1-6.787-2.811v-2.929h7.952v2.929a3.959,3.959,0,0,1-1.165,2.811m10.683-2.811a3.976,3.976,0,0,1-7.952,0v-2.929h7.952Zm8.354,2.811a3.976,3.976,0,0,1-6.788-2.811v-2.929h7.952v2.929a3.959,3.959,0,0,1-1.165,2.811m10.683-2.811a3.976,3.976,0,0,1-7.952,0v-2.929h7.952Zm9.8,0a3.976,3.976,0,0,1-7.952,0v-2.929h7.952Zm8.354,2.811a3.976,3.976,0,0,1-6.787-2.811v-2.929h7.952v2.929a3.961,3.961,0,0,1-1.165,2.811m10.683-2.811a3.976,3.976,0,0,1-7.952,0v-2.929h7.952Zm9.519,0a3.976,3.976,0,0,1-7.952,0v-2.929h7.952Zm9.518,0a3.976,3.976,0,0,1-7.952,0v-2.929H248.5Zm-8.735-4.5H201.689a.7.7,0,0,1-.279,0H70.881V294.266l26.88-12.75,32.055,15.694a8.678,8.678,0,0,1,1.477,0l33.1-15.7,32.056,15.694.039.014.078.029.072.018.076.012.075,0,.076,0,.075-.011.073-.018.077-.027.04-.014,33.1-15.7,25.857,12.66v14.912H239.762Zm18.253,1.567v2.929a3.976,3.976,0,0,1-7.952,0v-2.929Zm3.823-15.4-31.267-15.308a.785.785,0,0,0-.68,0l-33.1,15.7L164.74,279.944a.785.785,0,0,0-.68,0L130.622,295.8l-.063.038-.054-.034-32.395-15.86a.785.785,0,0,0-.68,0l-32.318,15.33v-1L97.761,278.78l32.055,15.694a8.628,8.628,0,0,1,1.477,0l33.1-15.7,32.056,15.694.039.014.078.029.072.018.076.012.075,0,.076,0,.075-.011.073-.017.077-.028.04-.014,33.1-15.7,31.617,15.48Z" transform="translate(-43.637 -190.302)" fill="#2e2e2d"/>
      <path id="パス_3475" data-name="パス 3475" d="M230.258,73.191a120.219,120.219,0,1,0,9.419,46.648,119.438,119.438,0,0,0-9.419-46.648M229.1,166a118.962,118.962,0,1,1,9.321-46.16A118.183,118.183,0,0,1,229.1,166" transform="translate(0 0)" fill="#2e2e2d"/>
      <path id="パス_3476" data-name="パス 3476" d="M232.8,78.343a118.222,118.222,0,1,0,9.262,45.87,117.443,117.443,0,0,0-9.262-45.87M124.214,239.864a115.65,115.65,0,1,1,115.65-115.65,115.65,115.65,0,0,1-115.65,115.65" transform="translate(-4.375 -4.375)" fill="#2e2e2d"/>
    </g>
  </g>
</svg>
