<svg xmlns="http://www.w3.org/2000/svg" width="32" height="36.64" viewBox="0 0 32 36.64">
  <g id="train-icon_white" transform="translate(0 -154.092)">
    <g id="グループ_166" data-name="グループ 166" transform="translate(0 11.798)">
      <path id="パス_286" data-name="パス 286" d="M1373.142,331.11h5.29l5.187-3.695h-2.766Z" transform="translate(-1373.142 -152.176)" fill="#fff"/>
      <path id="パス_287" data-name="パス 287" d="M1504.647,331.11h-5.29l-5.186-3.695h2.766Z" transform="translate(-1472.647 -152.176)" fill="#fff"/>
    </g>
    <path id="パス_285" data-name="パス 285" d="M1405.245,157.5h-23.387a2.987,2.987,0,0,0-2.876,3.086v25.876a2.987,2.987,0,0,0,2.876,3.086h23.387a2.987,2.987,0,0,0,2.876-3.086V160.586A2.987,2.987,0,0,0,1405.245,157.5Zm-21.959,28.986a1.432,1.432,0,1,1,1.437-1.432A1.434,1.434,0,0,1,1383.286,186.486Zm20.531,0a1.432,1.432,0,1,1,1.437-1.432A1.434,1.434,0,0,1,1403.817,186.486Zm1.437-8.463a1.85,1.85,0,0,1-1.781,1.912h-19.842a1.85,1.85,0,0,1-1.781-1.912v-9.83a1.85,1.85,0,0,1,1.781-1.912h19.842a1.85,1.85,0,0,1,1.781,1.912Zm0-16.133a1.49,1.49,0,0,1-1.435,1.54h-20.534a1.49,1.49,0,0,1-1.435-1.54h0a1.49,1.49,0,0,1,1.435-1.54h20.534a1.49,1.49,0,0,1,1.435,1.54Z" transform="translate(-1377.551 -3.408)" fill="#fff"/>
  </g>
</svg>
